<?xml version="1.0" encoding="UTF-8" standalone="no"?>
<svg width="115px" height="27px" viewBox="0 0 115 27" version="1.1" xmlns="http://www.w3.org/2000/svg" xmlns:xlink="http://www.w3.org/1999/xlink" xmlns:sketch="http://www.bohemiancoding.com/sketch/ns">
    <!-- Generator: Sketch 3.3.3 (12081) - http://www.bohemiancoding.com/sketch -->
    <title>logo justert copy + Group</title>
    <desc>Created with Sketch.</desc>
    <defs></defs>
    <g id="Page-1" stroke="none" stroke-width="1" fill="none" fill-rule="evenodd" sketch:type="MSPage">
        <g id="Desktop-HD" sketch:type="MSArtboardGroup" transform="translate(-663.000000, -125.000000)">
            <g id="Start" sketch:type="MSLayerGroup">
                <g id="logo-justert-copy-+-Group" transform="translate(663.000000, 125.000000)" sketch:type="MSShapeGroup">
                    <g id="logo-justert-copy" transform="translate(0.000000, 2.297872)" fill="#000000">
                        <path d="M0,11.2487882 C0,5.02977087 4.49827853,0 10.1028004,0 C15.4496431,0 19.6946852,4.57273651 20.1189672,10.4256478 L20.1189672,10.6075044 C20.1189672,11.2009312 19.6524791,11.6125014 19.1015788,11.6125014 L2.03699823,11.6125014 C2.24802858,16.5058799 5.8155522,20.2100118 10.1028004,20.2100118 C12.8617445,20.2100118 15.407437,18.6546592 16.8069014,16.1397738 C17.1045653,15.5918111 17.7420991,15.5008828 18.1663812,15.7736677 C18.6350907,16.1397738 18.803915,16.7810576 18.5062511,17.3290203 C16.7224893,20.3918684 13.6236752,22.4042553 10.1028004,22.4042553 C4.49827853,22.4042553 0,17.3744844 0,11.2487882 L0,11.2487882 Z M2.16361644,9.46611492 L17.9131447,9.46611492 C17.2334049,5.25709163 13.921339,2.19424353 10.1028004,2.19424353 C6.1976282,2.19424353 2.92776845,5.21402033 2.16361644,9.46611492 L2.16361644,9.46611492 Z" id="Fill-1"></path>
                        <path d="M77.5183645,0 C72.6117547,0 68.6411824,4.12407097 68.6411824,9.11851273 L68.6411824,21.3061015 C68.6411824,21.9462916 69.1313765,22.4042553 69.7102724,22.4042553 C70.2915026,22.4042553 70.7816967,21.9462916 70.7816967,21.3061015 L70.7816967,9.11851273 C70.7816967,5.31573566 73.7695466,2.19870528 77.5183645,2.19870528 C81.2648481,2.19870528 84.252698,5.31573566 84.252698,9.11851273 L84.252698,21.3061015 C84.252698,21.9462916 84.7428921,22.4042553 85.3241223,22.4042553 C85.9030182,22.4042553 86.3932123,21.9462916 86.3932123,21.3061015 L86.3932123,9.11851273 C86.3932123,4.12407097 82.4249742,0 77.5183645,0" id="Fill-2"></path>
                        <path d="M32.5859412,0 C27.6793314,0 23.7087591,4.12407097 23.7087591,9.11851273 L23.7087591,21.3061015 C23.7087591,21.9462916 24.1989532,22.4042553 24.7778491,22.4042553 C25.3590793,22.4042553 25.8492734,21.9462916 25.8492734,21.3061015 L25.8492734,9.11851273 C25.8492734,5.31573566 28.8371233,2.19870528 32.5859412,2.19870528 C36.3324248,2.19870528 39.3202747,5.31573566 39.3202747,9.11851273 L39.3202747,21.3061015 C39.3202747,21.9462916 39.8104688,22.4042553 40.391699,22.4042553 C40.9705949,22.4042553 41.460789,21.9462916 41.460789,21.3061015 L41.460789,9.11851273 C41.460789,4.12407097 37.4925509,0 32.5859412,0" id="Fill-3"></path>
                        <path d="M89.9436183,1.09831819 C89.9436183,0.457034366 90.4406751,0 91.0300425,0 C91.6620148,0 92.1590716,0.457034366 92.1590716,1.09831819 L92.1590716,21.30833 C92.1590716,21.9017568 91.6620148,22.4042553 91.0300425,22.4042553 C90.4406751,22.4042553 89.9436183,21.9017568 89.9436183,21.30833 L89.9436183,1.09831819" id="Fill-4"></path>
                        <path d="M95.8609616,11.1578599 C95.8609616,4.93884257 100.949666,0 107.310546,0 C109.945259,0 112.446809,0.914068731 114.399064,2.46942128 C114.853243,2.7900632 114.943603,3.47441832 114.536982,3.97691684 C114.170786,4.38848705 113.535887,4.52727236 113.036528,4.16116629 C111.445713,2.8809915 109.4459,2.14877937 107.310546,2.14877937 C102.131482,2.14877937 98.0414952,6.21901736 98.0414952,11.1578599 C98.0414952,16.185238 102.131482,20.2100118 107.310546,20.2100118 C109.4459,20.2100118 111.445713,19.4777997 113.036528,18.243089 C113.535887,17.876983 114.170786,18.0157683 114.536982,18.4273385 C114.943603,18.929837 114.853243,19.616585 114.308704,20.0281552 C112.446809,21.4901866 109.945259,22.4042553 107.310546,22.4042553 C100.949666,22.4042553 95.8609616,17.4654127 95.8609616,11.1578599" id="Fill-5"></path>
                    </g>
                    <g id="Group" transform="translate(45.640625, 0.492287)">
                        <path d="M9.78577806,25.9179476 C15.6219786,22.5666002 19.5485536,16.3026796 19.5485536,9.12837133 C19.5485536,6.53321012 19.0347673,4.05717173 18.1026606,1.79502318 L18.1026606,1.79502318 C15.608878,0.647544053 12.8300953,0.0071352615 9.90063424,0.0071352615 C6.8594206,0.0071352615 3.98060078,0.697336405 1.41446255,1.928551 C0.516806171,4.154473 0.0230025226,6.58417727 0.0230025226,9.12837133 C0.0230025226,16.3026796 3.94957746,22.5666002 9.78577806,25.9179476 Z" id="Oval-1-Copy-10" fill="#FF4D39"></path>
                        <path d="M9.87738574,23.2425736 C14.4816923,20.5568838 17.5724313,15.5889707 17.5724313,9.90446098 C17.5724313,7.83459668 17.1626425,5.85974309 16.4192072,4.05548504 L16.4192072,4.05548504 C14.4302011,3.14027173 12.2138829,2.62949063 9.87738574,2.62949063 L9.87738574,23.2425736 Z" id="Oval-1-Copy-8" fill="#F9796A"></path>
                        <path d="M3.09057563,16.1363171 L4.98030279,11.8838971 C5.00541557,11.8257014 5.01797177,11.7810161 5.01797177,11.7498399 C5.01797177,11.7186636 5.00541557,11.6698216 4.98030279,11.6033122 L3.31031135,7.91206199 C3.26845672,7.81645481 3.27054942,7.73228018 3.31658951,7.65953559 C3.3626296,7.58679099 3.42750331,7.55041924 3.51121257,7.55041924 L4.96774646,7.55041924 C5.07238304,7.55041924 5.15399835,7.6148492 5.21259483,7.74371106 L6.27988259,10.3874443 C6.29662444,10.4290127 6.32173685,10.4497965 6.35522055,10.4497965 C6.38870426,10.4497965 6.41381666,10.4290127 6.43055851,10.3874443 L7.49784627,7.74371106 C7.55644276,7.6148492 7.63805806,7.55041924 7.74269464,7.55041924 L9.19922853,7.55041924 C9.28293779,7.55041924 9.34885785,7.58679099 9.39699067,7.65953559 C9.4451235,7.73228018 9.44616985,7.81645481 9.40012976,7.91206199 L7.73013832,11.6157827 C7.70502554,11.682292 7.69246934,11.7300949 7.69246934,11.7591927 C7.69246934,11.7882906 7.70502554,11.834015 7.73013832,11.8963676 L9.61986547,16.1363171 C9.64079279,16.1820423 9.65125629,16.2256884 9.65125629,16.2672568 C9.65125629,16.3129819 9.63870009,16.3524713 9.61358731,16.3857259 C9.56754721,16.4563921 9.50058081,16.4917247 9.41268608,16.4917247 L7.89964873,16.4917247 C7.76152844,16.4917247 7.67154233,16.4272947 7.6296877,16.2984329 L6.43055851,13.2743512 C6.41381666,13.2327828 6.38870426,13.211999 6.35522055,13.211999 C6.32173685,13.211999 6.29662444,13.2327828 6.27988259,13.2743512 L5.0807534,16.2984329 C5.03889877,16.4272947 4.94891266,16.4917247 4.81079238,16.4917247 L3.29775502,16.4917247 C3.21404576,16.4917247 3.14707935,16.4543137 3.09685379,16.3794907 C3.07174102,16.3420792 3.05918481,16.3005115 3.05918481,16.2547863 C3.05918481,16.2173748 3.06964832,16.1778855 3.09057563,16.1363171 L3.09057563,16.1363171 Z M10.6745969,16.2360807 L10.6745969,7.80606326 C10.6745969,7.73955391 10.7007557,7.68031991 10.7530739,7.62835949 C10.8053922,7.57639906 10.8650342,7.55041924 10.9320016,7.55041924 L13.7634533,7.55041924 C14.131774,7.55041924 14.4802086,7.62108436 14.8087674,7.76241672 C15.1373263,7.90374907 15.4240262,8.09599977 15.6688758,8.33917456 C15.9137254,8.58234936 16.1073002,8.86708822 16.2496059,9.1933997 C16.3919117,9.51971118 16.4630635,9.86576242 16.4630635,10.2315638 C16.4630635,10.6056789 16.3919117,10.9548477 16.2496059,11.2790808 C16.1073002,11.6033138 15.9137254,11.8870135 15.6688758,12.1301883 C15.4240262,12.3733631 15.1373263,12.5656138 14.8087674,12.7069462 C14.4802086,12.8482785 14.131774,12.9189436 13.7634533,12.9189436 L12.601993,12.9189436 C12.5182838,12.9189436 12.4764298,12.9605113 12.4764298,13.043648 L12.4764298,16.2360807 C12.4764298,16.30259 12.450271,16.361824 12.3979527,16.4137844 C12.3456344,16.4657449 12.2859925,16.4917247 12.2190251,16.4917247 L10.9320016,16.4917247 C10.8650342,16.4917247 10.8053922,16.4657449 10.7530739,16.4137844 C10.7007557,16.361824 10.6745969,16.30259 10.6745969,16.2360807 L10.6745969,16.2360807 Z M12.4764298,10.9984959 C12.4764298,11.0816326 12.5182838,11.1252787 12.601993,11.1294355 L13.7634533,11.1294355 C14.0103956,11.1294355 14.2217583,11.0421433 14.3975477,10.8675563 C14.5733372,10.6929692 14.6612306,10.4809739 14.6612306,10.2315638 C14.6612306,9.98631061 14.5733372,9.77639364 14.3975477,9.60180661 C14.2217583,9.42721957 14.0103956,9.33992737 13.7634533,9.33992737 L12.601993,9.33992737 C12.5182838,9.33992737 12.4764298,9.38357347 12.4764298,9.47086699 L12.4764298,10.9984959 Z" id="XP-Copy-2" fill="#FFFFFF"></path>
                        <path d="M1.17156435,24.7497886 C6.44919869,21.6713471 9.99192325,15.976933 9.99192325,9.46112801 C9.99192325,7.08856949 9.52220752,4.8249159 8.67005321,2.75680553 L8.67005321,2.75680553 C6.39017748,1.70775263 3.84974783,1.12227558 1.17156435,1.12227558 L1.17156435,24.7497886 Z" id="Oval-1-Copy-9" opacity="0.150944496" fill="#FF4D39" transform="translate(5.581744, 12.936032) scale(-1, 1) translate(-5.581744, -12.936032) "></path>
                    </g>
                </g>
            </g>
        </g>
    </g>
</svg>